<?xml version="1.0" encoding="UTF-8" standalone="no"?> <svg xmlns="http://www.w3.org/2000/svg" xmlns:xlink="http://www.w3.org/1999/xlink" xmlns:serif="http://www.serif.com/" width="100%" height="100%" viewBox="0 0 8208 1243" version="1.1" xml:space="preserve" style="fill-rule:evenodd;clip-rule:evenodd;stroke-linejoin:round;stroke-miterlimit:2;"><g><path d="M2865.99,1038.28c-8.438,-7.153 -16.3,-14.901 -23.588,-23.205c-6.635,-7.594 -6.213,-19.196 0.959,-26.272l90.133,-88.791c6.885,-6.923 18.103,-7.422 25.698,-1.151c15.974,13.424 31.124,27.366 45.45,41.807c130.789,131.364 310.096,159.171 488.444,102.79c86.681,-27.232 158.404,-79.969 168.568,-175.28c19.753,-184.102 -182.759,-191.197 -321.794,-192.54c-211.909,-1.918 -496.499,-57.148 -457.761,-344.423c25.122,-186.211 201.745,-309.521 381.627,-324.863c196.625,-16.742 367.11,38.872 511.458,166.842c7.728,6.923 8.572,18.89 1.917,26.848l-84.188,99.338c-3.643,4.258 -8.975,6.693 -14.555,6.693c-4.66,0 -9.167,-1.687 -12.676,-4.775c-136.792,-119.033 -287.333,-156.294 -451.625,-111.803c-116.981,31.642 -217.661,222.072 -65.202,288.809c22.763,9.972 65.145,17.202 127.145,21.67c206.731,14.767 524.881,6.137 559.592,279.988c63.668,503.595 -657.013,578.194 -931.056,293.22c-8.054,-8.188 -20.903,-19.81 -38.546,-34.902Z" style="fill-rule:nonzero;"></path><path d="M8206.63,649.005c-14.862,340.415 -314.737,607.995 -664.319,592.73c-349.563,-15.265 -624.986,-307.948 -610.124,-648.382c14.862,-340.416 314.737,-607.996 664.319,-592.731c349.563,15.265 624.987,307.948 610.124,648.383Zm-172.94,-41.02c-6.827,-244.913 -222.475,-440.598 -477.706,-433.464c-255.23,7.134 -459.621,214.536 -452.774,459.468c6.827,244.913 222.475,440.597 477.705,433.463c255.23,-7.133 459.621,-214.535 452.775,-459.467Z" style="fill-rule:nonzero;"></path><path d="M291.065,453.186l-1.726,744.269l-0,0.096c-0.058,10.528 -8.668,19.139 -19.081,19.081l-0.096,0l-129.447,-1.15c-10.413,-0 -18.985,-8.649 -18.985,-19.178l-0,-990.888c-0,-4.468 -1.554,-8.802 -4.411,-12.274l-109.119,-131.172c-13.941,-16.627 -10.106,-24.988 11.507,-25.122l181.608,-1.534c5.696,-0.115 11.2,2.435 14.959,6.904l462.171,555.948c3.644,4.392 9.052,6.923 14.748,6.923c5.619,-0 10.95,-2.455 14.594,-6.731l471.76,-556.332c3.778,-4.258 9.224,-6.693 14.958,-6.712l178.157,1.534c21.229,0.134 25.179,8.438 11.89,24.93l-107.968,133.858c-2.723,3.356 -4.219,7.613 -4.219,12.081l-0,988.971c-0,10.528 -8.649,19.177 -19.177,19.177l-129.447,0c-10.624,0 -19.369,-8.649 -19.369,-19.177l0.192,-745.611c-0,-35.152 -11.257,-39.314 -33.752,-12.466l-360.916,429.571c-3.682,4.334 -9.09,6.827 -14.766,6.827c-5.677,-0 -11.085,-2.493 -14.767,-6.827l-355.354,-427.269c-22.63,-26.983 -33.944,-22.879 -33.944,12.273Z" style="fill-rule:nonzero;"></path><path d="M1891.02,1047.3l690.189,1.151c10.528,-0 19.177,8.649 19.177,19.177l0,129.063c0,10.413 -8.649,18.985 -19.177,18.985l-862.976,0.384c-10.528,0 -19.177,-8.649 -19.177,-19.177l-0,-1141.24c-0,-10.529 8.649,-19.178 19.177,-19.178l795.856,0c10.528,0 19.177,8.649 19.177,19.178l-0,129.254c-0,10.529 -8.649,19.178 -19.177,19.178l-624.028,0.575c-10.528,-0 -19.177,8.649 -19.177,19.177l0.575,312.397c0.038,10.49 8.687,19.101 19.177,19.101c2.148,0 4.296,-0.364 6.329,-1.074c9.972,-3.452 19.618,-7.095 28.957,-10.931c16.493,-7.038 31.835,-11.257 46.026,-12.657c120.433,-11.756 241.115,-14.44 362.066,-8.054c10.126,0.517 18.142,9.051 18.027,19.177l-0.575,134.432c-0,10.279 -8.323,18.775 -18.602,18.986c-130.54,3.701 -215.553,5.044 -255.058,4.027c-73.391,-1.918 -138.843,12.024 -196.375,41.807c-6.367,3.298 -10.375,9.895 -10.356,17.067l0.768,270.016c0.095,10.49 8.687,19.081 19.177,19.177Z" style="fill-rule:nonzero;"></path><path d="M4604.41,210.786l-0,999.326c-0,3.586 -2.934,6.52 -6.52,6.52l-154.761,-1.15c-3.586,-0 -6.52,-2.934 -6.52,-6.521l0,-998.175c0,-3.587 -2.934,-6.521 -6.52,-6.521l-413.654,0c-3.586,0 -6.52,-2.934 -6.52,-6.52l0,-154.76c0,-3.587 2.934,-6.521 6.52,-6.521l998.56,0c3.586,0 6.52,2.934 6.52,6.521l0,154.76c0,3.586 -2.934,6.52 -6.52,6.52l-404.065,0c-3.586,0 -6.52,2.934 -6.52,6.521Z" style="fill-rule:nonzero;"></path><path d="M5453.2,36.963c0,-0.595 -0.479,-1.074 -1.074,-1.074l-165.845,0c-0.594,0 -1.074,0.479 -1.074,1.074l0,1178.4c0,0.594 0.48,1.074 1.074,1.074l165.845,-0c0.595,-0 1.074,-0.48 1.074,-1.074l0,-1178.4Z"></path><path d="M5789.37,198.32l-2.301,-156.294c-0,-3.26 2.685,-5.945 5.945,-5.945l858.182,0.575c3.26,0 5.945,2.685 5.945,5.945l-2.11,158.404c-0.019,1.323 -0.498,2.608 -1.342,3.644l-683.861,833.635c-0.901,1.074 -1.4,2.435 -1.4,3.835c0,3.26 2.685,5.945 5.945,5.945l733.396,0c3.26,0 5.945,2.685 5.945,5.945l0.767,155.911c-0,3.26 -2.685,5.945 -5.945,5.945l-952.342,0c-3.261,0 -5.945,-2.685 -5.945,-5.945l-0,-164.349c0.019,-1.323 0.498,-2.608 1.342,-3.643l663.149,-828.074c0.806,-1.036 1.247,-2.321 1.247,-3.644c-0,-3.26 -2.685,-5.945 -5.945,-5.945l-614.727,0c-3.26,0 -5.945,-2.685 -5.945,-5.945Z" style="fill-rule:nonzero;"></path></g></svg> 